<svg id="Capa_1" data-name="Capa 1" xmlns="http://www.w3.org/2000/svg" viewBox="0 0 220.39 81"><defs><style>.cls-1{fill:#fff;}</style></defs><title>diseño</title><g id="Capa_2" data-name="Capa 2"><path class="cls-1" d="M47.46,67.54A16.65,16.65,0,0,0,51.59,72c3.16,2.51,6.89,3.81,10.62,5.11,0.16,0.08.32,0,.24,0,0.32-2.92.41-5.84,0.89-8.6a16.47,16.47,0,0,1,3.73-8.19c3.57-3.89,7.78-3.89,11.27,0,2.92,3.24,3.65,7.3,4,11.51a43.51,43.51,0,0,0-1.7-4.54A19.2,19.2,0,0,0,77.95,63c-3.24-3.73-8-3.32-10.79.81-2.84,4.38-3.41,9.33-3.08,14.35a49.77,49.77,0,0,0,1.54,8.43,15.76,15.76,0,0,0,1.78,3.49l-10.14.73v0.24c1.7,0.24,3.41.65,5.11,0.81,6.89,0.81,13.79,1.62,20.68,2.35,7.05,0.73,14.11,1.38,21.16,2.11,5.68,0.57,11.27,1.3,16.87,1.95,6.24,0.73,12.41,1.38,18.65,2.11,4.7,0.57,9.33,1.38,13.95,1.62,6.73,0.41,13.54.57,20.27,0.41,9.41-.32,18.89-1.14,28.3-1.7l17.6-1.22c2.27-.16,4.54-0.57,7.22-0.89a13.3,13.3,0,0,0-6.65-1.7c-10.06-.57-20.11-1.05-30.25-1.54-3.41-.16-6.73-0.24-10.14-0.32a13.35,13.35,0,0,1-1.7-.16,15.77,15.77,0,0,0,.65-1.78c0.32,0,.65-0.08,1-0.08,11.76-.08,23.52-0.16,35.27-0.32,2.59,0,5.19-.41,7.78-0.49a2.16,2.16,0,0,1,1.46.57c4.7,6,12.81,8,20.43,5.11a16.94,16.94,0,0,0,10.7-11.76,1.9,1.9,0,0,1,2.11-1.62,11.18,11.18,0,0,0,7.54-2.68c2.84-2.68,2.27-6-1.3-7.62a7.31,7.31,0,0,1-.73-0.41,15.06,15.06,0,0,0,3-7.38c0.57-4.46-1.54-7.78-4.95-10.3-4.46-3.24-9.57-4.78-14.84-6.08a147.67,147.67,0,0,0-26-4.22c-10.14-.73-20.27-1.05-30.41-1.54a4.66,4.66,0,0,1-3.49-1.54c-4.14-4.62-8.35-9.08-12.33-13.79-3.73-4.38-8.68-6.33-14.19-6.65-7.22-.41-14.52-0.89-21.73-0.81-7.54.08-15.16,0.81-22.71,1.3A85.27,85.27,0,0,0,96.44,26.1c-7.87,2.43-14.6,7.05-20.84,12.33-1.62,1.38-3,3-4.78,4.05-1.22.73-2.84,0.81-4.3,1.14-3.65.89-7.38,1.54-10.95,2.68-7.54,2.59-9.08,8.92-7.05,15.81a5,5,0,0,0,.41,1C46.65,64.06,46,65.35,47.46,67.54ZM75.6,82.22c-0.65.89-1.38,1.7-2.59,1.54a2.78,2.78,0,0,1-2.51-2c-0.49-1.78-.81-3.57-1.3-5.68A44.09,44.09,0,0,1,71,69.89c1-2.27,3.41-2.27,4.7-.16C77.54,72.57,77.54,79.38,75.6,82.22Zm14.6-48.09c-0.89,3.41-1.78,6.81-2.68,10.38-2.27-1.54-4.38-2.84-7-4.54,3.32-2.19,6.33-4.22,9.33-6.16A1.22,1.22,0,0,0,90.19,34.13Zm23.35,12.65H110.3c-0.65-5.19-2.76-7.05-6.81-6.24-3.08.57-4.3,3-3.32,7.22-3.32-.73-6.49-1.38-9.73-2,0.89-4,1.78-7.7,2.68-11.43a2.85,2.85,0,0,1,2.19-2.35,72.6,72.6,0,0,1,15.08-2.68c0.49,3,1.05,5.92,1.54,8.84C112.49,40.86,113,43.78,113.55,46.78Zm8.11-1.46-3.73.49c-1.22-5.84-2.35-11.35-3.49-17,2.27-.41,2.27-0.41,2.76,1.46,0.32,1.3.73,2.51,1.05,3.81C119.38,37.78,120.52,41.51,121.66,45.32Zm60.82-2.51c-1-.08-1.46-0.08-2-0.08-4.62-.24-9.33-0.81-13.95-0.81-8.27,0-16.54.32-24.81,0.57a2.06,2.06,0,0,1-1.95-.89c-2.43-3.24-4.87-6.49-7.38-9.73-1.3-1.62-2.59-3.16-4.05-4.95,3.65-.24,6.89-0.57,10.22-0.57,8.27,0.08,16.54.32,24.81,0.57a9.22,9.22,0,0,1,6.57,2.84Zm6.73,17.92a6.41,6.41,0,0,1,.08,12.81,6.16,6.16,0,0,1-6.08-6.24C183.28,63.57,185.72,60.73,189.2,60.73Zm-10.54,5.76c-1.54-1.95-1.87-4.87-.73-6.49a4.56,4.56,0,0,1,5.51-1.22C180.37,60.49,179.07,63.16,178.66,66.49ZM260.73,63a23.52,23.52,0,0,1-.57,3.08,5,5,0,0,1-4.54,3.65,4.62,4.62,0,0,1-4.54-2.19,7.23,7.23,0,0,1,1.05-8.68,4.63,4.63,0,0,1,7.46,1.05A12.1,12.1,0,0,1,260.73,63ZM249.46,77.27a3.13,3.13,0,0,1,1.78-.89A47.22,47.22,0,0,1,256.1,76a25.27,25.27,0,0,1,3.57.41,9.69,9.69,0,0,1,1.78,1c-0.49.49-1,1.3-1.54,1.38-3.16.41-6.41,0.73-9.57,0.89a1.84,1.84,0,0,1-1.22-.81A2,2,0,0,1,249.46,77.27Zm-2.68-15.65a4.17,4.17,0,0,1,.32-4.7,2.92,2.92,0,0,1,3.32-1.14C249.29,57.65,248,59.6,246.78,61.62Zm-44.36,20c14.27-.57,28.46-1.22,42.82-1.78a7.23,7.23,0,0,0-.81.41,64.37,64.37,0,0,1-15.65,3c-6.57.41-13.22,0.65-19.79,0.81C206.72,84,204.29,83.6,202.42,81.65Zm1.7-11.19a34.61,34.61,0,0,1,5.76-1.22c5.92-.57,11.76-1.14,17.68-1.38,5.35-.24,10.7-0.08,16.06-0.08,1.3,0,2.68.32,3,1.78,0.57,2.51-.24,4.87-1.78,7.22V71.11c-2.68-.16-5.35-0.41-7.95-0.32-7.95.24-16,.49-23.92,0.89A67.91,67.91,0,0,0,205,73.06a1.3,1.3,0,0,0-1.3,1.62c0.08,1.22,0,2.51,0,3.73-0.08.08-.16,0.08-0.24,0.16-0.57-1.05-1.22-2-1.7-3.08C200.72,73,201.53,71.19,204.13,70.46Zm-31.06,9.08a1.81,1.81,0,0,1,1.05-1.14,5.32,5.32,0,0,1,2-.32h8.51v0.24c3.65,0,7.22-.08,10.87.08A2.61,2.61,0,0,1,197.48,80c0.57,1.54-.32,2.51-2.27,2.43-5.27-.16-10.54-0.32-15.81-0.65a30.73,30.73,0,0,1-5.35-.89A1.66,1.66,0,0,1,173.07,79.54ZM118.41,50.27a1.58,1.58,0,0,0-.08-0.57C124,49,129.6,48,135.28,47.51a125.5,125.5,0,0,1,27.57.73,90.53,90.53,0,0,1,28.63,8.92c1.05,0.57,2.11,1.22,3.16,1.78a5.16,5.16,0,0,0-.16.57C169.9,50.27,144.28,48.81,118.41,50.27ZM145.9,83.44a23.16,23.16,0,0,1,.57-4.05,13.26,13.26,0,0,1,2.11-4.46c2.59-3.32,6.81-3.08,9.08.57,2.68,4.14,2.68,8.6.89,13.06a6,6,0,0,1-5.68,4.22c-2.68.08-4.87-1.62-5.84-4.54A26.69,26.69,0,0,1,145.9,83.44Zm-55,6.73c0.65-1.62,1.38-3.32,2.11-5,14.68,1.62,29.27,3.16,44,4.78-0.16-2-.32-3.89-0.41-5.84-0.08-6,.89-11.68,4.38-16.7,4.87-7.14,13.22-8.6,19.71-3.24A19.55,19.55,0,0,1,167,74c0.73,2.43,1.14,5,1.7,7.46l-0.41.08a0.86,0.86,0,0,1-.16-0.41c-0.08-.24-0.16-0.57-0.24-0.81a34.62,34.62,0,0,0-5.27-10.87c-5.35-7.05-14.43-7.05-19.54.16-3.24,4.54-3.89,9.73-3.49,15.16a77.41,77.41,0,0,0,1.3,7.95C124.17,91.79,107.55,91,90.92,90.17Zm-2.19-13.3a3.51,3.51,0,0,1,.08-0.41c4.46,0.49,8.92.73,13.38,1.46,9.24,1.46,18.49,3.08,27.73,4.54,1.22,0.16,1.3.73,1.05,1.95C116.79,81.9,102.76,79.38,88.73,76.87ZM67.57,45.32c11.11-1.54,20,2.84,28.38,8.92-0.08.16-.08,0.32-0.16,0.49C86.54,51.65,77.22,48.57,67.57,45.32Z" transform="translate(-46.68 -21.47)"/></g></svg>